<mxfile host="app.diagrams.net" agent="Mozilla/5.0 (Windows NT 10.0; Win64; x64) AppleWebKit/537.36 (KHTML, like Gecko) Chrome/131.0.0.0 Safari/537.36" version="24.8.6">
  <diagram name="Page-1" id="WNLtnBHWU46KUINvDLu1">
    <mxGraphModel dx="555" dy="398" grid="1" gridSize="10" guides="1" tooltips="1" connect="1" arrows="1" fold="1" page="1" pageScale="1" pageWidth="827" pageHeight="1169" math="0" shadow="0">
      <root>
        <mxCell id="0" />
        <mxCell id="1" parent="0" />
        <mxCell id="lq2wjryCtouyhxwAWbAZ-8" value="" style="edgeStyle=orthogonalEdgeStyle;rounded=0;orthogonalLoop=1;jettySize=auto;html=1;" edge="1" parent="1" source="lq2wjryCtouyhxwAWbAZ-2" target="lq2wjryCtouyhxwAWbAZ-6">
          <mxGeometry relative="1" as="geometry" />
        </mxCell>
        <mxCell id="lq2wjryCtouyhxwAWbAZ-2" value="0" style="swimlane;fontStyle=0;childLayout=stackLayout;horizontal=1;startSize=20;fillColor=#ffffff;horizontalStack=0;resizeParent=1;resizeParentMax=0;resizeLast=0;collapsible=0;marginBottom=0;swimlaneFillColor=#ffffff;rounded=1;" vertex="1" parent="1">
          <mxGeometry x="300" y="210" width="120" height="80" as="geometry" />
        </mxCell>
        <mxCell id="lq2wjryCtouyhxwAWbAZ-3" value="Student&amp;nbsp;&lt;div&gt;Attendance&lt;div&gt;&amp;nbsp;System&lt;/div&gt;&lt;/div&gt;" style="text;html=1;align=center;verticalAlign=middle;resizable=0;points=[];autosize=1;strokeColor=none;fillColor=none;" vertex="1" parent="lq2wjryCtouyhxwAWbAZ-2">
          <mxGeometry y="20" width="120" height="60" as="geometry" />
        </mxCell>
        <mxCell id="lq2wjryCtouyhxwAWbAZ-7" value="" style="edgeStyle=orthogonalEdgeStyle;rounded=0;orthogonalLoop=1;jettySize=auto;html=1;" edge="1" parent="1" source="lq2wjryCtouyhxwAWbAZ-4" target="lq2wjryCtouyhxwAWbAZ-3">
          <mxGeometry relative="1" as="geometry">
            <Array as="points">
              <mxPoint x="280" y="255" />
              <mxPoint x="280" y="255" />
            </Array>
          </mxGeometry>
        </mxCell>
        <mxCell id="lq2wjryCtouyhxwAWbAZ-4" value="" style="html=1;dashed=0;whiteSpace=wrap;" vertex="1" parent="1">
          <mxGeometry x="130" y="245" width="100" height="30" as="geometry" />
        </mxCell>
        <mxCell id="lq2wjryCtouyhxwAWbAZ-9" value="" style="edgeStyle=orthogonalEdgeStyle;rounded=0;orthogonalLoop=1;jettySize=auto;html=1;" edge="1" parent="1" source="lq2wjryCtouyhxwAWbAZ-5" target="lq2wjryCtouyhxwAWbAZ-3">
          <mxGeometry relative="1" as="geometry" />
        </mxCell>
        <mxCell id="lq2wjryCtouyhxwAWbAZ-5" value="" style="html=1;dashed=0;whiteSpace=wrap;" vertex="1" parent="1">
          <mxGeometry x="490" y="245" width="100" height="30" as="geometry" />
        </mxCell>
        <mxCell id="lq2wjryCtouyhxwAWbAZ-6" value="" style="html=1;dashed=0;whiteSpace=wrap;" vertex="1" parent="1">
          <mxGeometry x="310" y="330" width="100" height="30" as="geometry" />
        </mxCell>
      </root>
    </mxGraphModel>
  </diagram>
</mxfile>
